<?xml version="1.0" encoding="UTF-8"?>
<svg id="Layer_1" data-name="Layer 1" xmlns="http://www.w3.org/2000/svg" viewBox="0 0 500 147.86">
  <defs>
    <style>
      .cls-1 {
        fill: #f6931d;
      }

      .cls-1, .cls-2, .cls-3 {
        stroke-width: 0px;
      }

      .cls-3 {
        fill: #fff;
      }
    </style>
  </defs>
  <g>
    <path class="cls-2" d="M248.11,39.72c-1.53-.91-1.54,1.34-2.04,2.3-.21.4-.87,1.27-1.18,1.59-.25.25-.97.81-1.28,1.01-.43.28-5.61,2.38-2.61,2.7,1.88.2,4.11-1.3,5.3-2.66.65-.75,3.05-4.2,1.8-4.93Z"/>
    <path class="cls-2" d="M252.36,30.79c-3.29.05-2.82,5.05.44,4.75,2.72-.25,2.64-4.8-.44-4.75Z"/>
    <path class="cls-2" d="M233.33,35.53c2.96-.27,2.42-5.05-.43-4.78-2.83.28-2.86,5.07.43,4.78Z"/>
    <path class="cls-2" d="M235.61,41.04c-.26-.36,1.17-1.46,1.43-1.81,1.27-1.68,1.81-3.55,1.2-5.64l-2.64,4.68-3.24,3h-.24c-.19,5.3,3.55,5.55,4.75,5.84l.09-.32c2.94-1.53,2.13-5.5-1.35-5.75ZM235.1,43.18c-.03.05-.5.33-.99.5-.52.19-1.06.27-1.15-.12-.05-.28.15-.55.45-.76.8-.57,2.33-.7,1.69.38Z"/>
  </g>
  <g>
    <path class="cls-1" d="M362.87,110.1c-1.72-1.06-3.83-1.59-6.26-1.59s-4.78.58-6.69,1.74c-1.92,1.15-3.43,2.79-4.51,4.85-1.07,2.04-1.61,4.48-1.61,7.25,0,4.21,1.25,7.58,3.7,10.02,2.45,2.44,5.81,3.67,9.99,3.67,1.89,0,3.74-.3,5.49-.89,1.77-.6,3.29-1.46,4.5-2.56l.55-.5-2.34-4.92-.99.83c-1.07.89-2.2,1.54-3.35,1.93-1.17.39-2.44.58-3.8.58-2.39,0-4.18-.65-5.48-2-1.06-1.1-1.69-2.68-1.88-4.72h17.97v-2.47c0-2.55-.44-4.8-1.32-6.69-.9-1.94-2.23-3.46-3.96-4.52ZM350.39,119.14c.28-1.31.77-2.42,1.47-3.3,1.12-1.41,2.67-2.09,4.75-2.09,1.89,0,3.26.57,4.19,1.73.73.91,1.19,2.14,1.38,3.67h-11.8Z"/>
    <path class="cls-1" d="M402.84,111.53c-.43-.44-.91-.85-1.45-1.21-1.78-1.2-3.89-1.81-6.27-1.81s-4.42.56-6.21,1.67c-1.79,1.11-3.2,2.73-4.2,4.8-.98,2.04-1.47,4.48-1.47,7.27s.49,5.24,1.47,7.29c.99,2.1,2.41,3.72,4.2,4.83,1.79,1.11,3.88,1.67,6.21,1.67s4.44-.61,6.22-1.81c.4-.27.77-.56,1.11-.88v2.25h6.46v-19.82c0-.92.04-1.87.12-2.81.08-.97.17-1.95.27-2.92l.11-1.1h-6.33l-.25,2.58ZM400.74,128.51c-1.15,1.35-2.65,2-4.58,2s-3.48-.66-4.63-2c-1.17-1.37-1.77-3.48-1.77-6.26s.6-4.86,1.78-6.2c1.17-1.32,2.68-1.96,4.62-1.96s3.44.64,4.59,1.96c1.17,1.34,1.76,3.43,1.76,6.2s-.6,4.88-1.77,6.26Z"/>
    <path class="cls-1" d="M441.33,108.56c-.38-.03-.85-.05-1.41-.05-1.33,0-2.64.26-3.89.79-1.09.46-2.06,1.14-2.87,2.03l-.21-2.37h-6.37l.15,1.13c.13.96.21,1.95.26,2.93.05,1.01.07,2.01.07,2.97v19.62h6.46v-15.21c0-1.08.24-2.1.7-3.03.46-.92,1.11-1.64,1.99-2.2.87-.55,1.91-.82,3.16-.82.54,0,1.01.02,1.38.07.32.04.69.14,1.09.3l1.34.53.15-6.13-.68-.25c-.44-.16-.88-.26-1.33-.3Z"/>
    <path class="cls-1" d="M479.06,111.21c-1.66-1.79-4.12-2.7-7.3-2.7-2.27,0-4.3.55-6.02,1.62-.62.39-1.19.85-1.7,1.36l-.24-2.54h-6.37l.15,1.13c.13.96.22,1.93.29,2.88.06.96.1,1.91.1,2.82v19.82h6.46v-15.01c0-2.04.54-3.59,1.66-4.75,1.1-1.15,2.59-1.7,4.55-1.7,1.55,0,2.69.39,3.37,1.16.71.8,1.07,2.22,1.07,4.21v16.09h6.46v-16.34c0-3.58-.83-6.29-2.47-8.05Z"/>
    <path class="cls-1" d="M223.62,70.29c.02-.99-.56-1.55-1.29-2.06l-.37-.25c-2.51-1.59-8.36-5.28-11.52-7.28-1.2-.77-1.92-1.09-2.22-.83h0c-.48.66-.27,1.92-.32,2.98v4.27c.04,5.76-.07,10.53.04,14.38.53,2.96,3.32,4.42,5.78,5.77,1.65.97,5.64,3.16,7.83,4.11l.03.02c.21.09.4.17.57.24,2.01.85,1.14-1.89,1.28-3.86.09-4.28.23-12.7.2-17.48Z"/>
    <path class="cls-1" d="M230.07,60.15c-2.07-2.85-6.98-6.12-10.33-3.6l9.37,7.09.96-3.49Z"/>
    <path class="cls-1" d="M236.01,63.68c3.71-2.33,7.6-4.41,11.38-6.65.62-.67.09-1.19-.78-1.04-1.18.21-7.32,4.09-8.72,5-2.15,1.41-4.26,2.9-6.12,4.69-.04,1.53,3.95-1.82,4.24-2Z"/>
    <path class="cls-1" d="M227.91,65.44c-1.48-1.3-3.01-2.66-4.58-3.83-2.14-1.59-5.95-4.32-8.23-5.47-1.03-.51-1.78-.74-1.82.73l13.84,8.88.79-.32Z"/>
    <path class="cls-1" d="M235.65,71.25c-.07,4.94-.36,18.83-.41,20.9,0,.17,0,.26,0,.26l15.76-8.53,1.1-23.39-14.89,8.16c-.95.53-1.54,1.52-1.55,2.61Z"/>
    <path class="cls-1" d="M226.73,68.67c2.04.8,4.19,1.18,5.99-.34-.66-.87-2.15-1.39-3.23-1.33-.67.04-3.3.83-2.76,1.68Z"/>
    <path class="cls-1" d="M225.36,70.36l-.73-.54c.01,4.88-.1,12.96-.2,18.6v.06c-.04.51,0,1.11.03,1.68.05.93.1,1.83-.12,2.53l2.54,1.41c1.24.69,2.68.72,3.95.09l3.43-1.68c.07-3.63.33-17.31.39-22.39,0-.04,0-.08,0-.13l-1.42.83c-2.51,1.45-5.53,1.28-7.88-.45Z"/>
    <rect class="cls-1" x="324.75" y="41.59" width="10.23" height="95.06"/>
  </g>
  <g>
    <g>
      <path class="cls-3" d="M61.49,79.37c-.17-1.5-.53-2.85-1.08-4.03-.55-1.18-1.18-2.22-1.89-3.12-.71-.9-1.43-1.63-2.17-2.2-.74-.56-1.36-.95-1.88-1.19.32-.2.69-.51,1.12-.95.43-.43.87-.96,1.3-1.61.43-.64.82-1.36,1.17-2.19.34-.82.58-1.74.7-2.75.26-1.83.23-3.63-.09-5.42-.32-1.85-.95-3.53-1.89-5.03-.94-1.5-2.09-2.79-3.45-3.86-1.36-1.06-2.89-1.9-4.59-2.49-1.71-.59-3.5-.89-5.38-.89h-21.77c-.66,0-1.21.05-1.65.15-.43.1-.77.24-1.01.41-.25.17-.42.39-.52.65-.1.26-.15.55-.15.87s.03.63.09.94c.06.3.12.61.18.93l.09.3c.05.24.1.46.13.7.03.23.06.48.09.74v44.23c0,1.67.39,3.07,1.17,4.19.78,1.11,2.09,1.67,3.91,1.67h20.03c2.2,0,4.28-.36,6.27-1.08,1.98-.72,3.76-1.74,5.33-3.06,1.58-1.32,2.88-2.88,3.93-4.71,1.04-1.82,1.72-3.83,2.03-6.03.23-1.67.23-3.39,0-5.16ZM28.88,52.66h14.22c.84,0,1.63.17,2.39.5.75.33,1.42.78,1.99,1.35.58.57,1.04,1.24,1.39,2.02.34.78.52,1.61.52,2.51s-.17,1.69-.51,2.47c-.33.78-.77,1.46-1.34,2.03-.57.58-1.23,1.04-2,1.36-.76.33-1.56.5-2.4.5h-14.27v-12.75ZM51.03,85.09c-.45,1.01-1.07,1.87-1.84,2.58-.76.7-1.65,1.26-2.64,1.67-1,.4-2.05.61-3.15.61h-14.52v-16.39h14.57c1.1,0,2.15.2,3.15.58,1,.39,1.88.95,2.64,1.67.76.72,1.37,1.59,1.82,2.6.45,1.01.67,2.12.67,3.34s-.23,2.33-.7,3.34Z"/>
      <path class="cls-3" d="M107.75,69.68c-1.12-2.58-2.66-4.85-4.62-6.79-1.95-1.93-4.22-3.47-6.81-4.59-2.58-1.12-5.36-1.69-8.3-1.69s-5.72.57-8.31,1.69c-2.58,1.12-4.86,2.66-6.81,4.59-1.95,1.94-3.49,4.21-4.62,6.79-1.12,2.58-1.69,5.36-1.69,8.3s.57,5.73,1.69,8.33c1.12,2.6,2.67,4.88,4.62,6.81,1.95,1.94,4.22,3.48,6.81,4.6,2.59,1.12,5.36,1.69,8.31,1.69s5.72-.57,8.3-1.69c2.58-1.12,4.86-2.66,6.81-4.6,1.96-1.93,3.49-4.21,4.62-6.81,1.13-2.6,1.69-5.37,1.69-8.33s-.56-5.72-1.69-8.3ZM98.26,82.47c-.58,1.41-1.36,2.63-2.36,3.67-1,1.04-2.17,1.86-3.52,2.47-1.34.61-2.79.91-4.35.91s-3.02-.3-4.39-.91c-1.36-.61-2.53-1.43-3.53-2.47-1-1.04-1.78-2.26-2.34-3.67-.57-1.4-.85-2.89-.85-4.49s.28-3.04.85-4.44c.57-1.41,1.35-2.63,2.34-3.67,1-1.05,2.17-1.87,3.53-2.47,1.36-.61,2.82-.91,4.39-.91s3.01.3,4.35.91c1.35.6,2.51,1.42,3.52,2.47,1,1.04,1.78,2.26,2.36,3.67.58,1.4.87,2.88.87,4.44s-.29,3.09-.87,4.49Z"/>
      <path class="cls-3" d="M155.89,69.68c-1.13-2.58-2.67-4.85-4.62-6.79-1.96-1.93-4.22-3.47-6.81-4.59-2.59-1.12-5.36-1.69-8.31-1.69s-5.72.57-8.3,1.69c-2.59,1.12-4.86,2.66-6.81,4.59-1.96,1.94-3.49,4.21-4.62,6.79-1.13,2.58-1.69,5.36-1.69,8.3s.56,5.73,1.69,8.33c1.12,2.6,2.66,4.88,4.62,6.81,1.95,1.94,4.21,3.48,6.81,4.6,2.58,1.12,5.36,1.69,8.3,1.69s5.72-.57,8.31-1.69c2.58-1.12,4.85-2.66,6.81-4.6,1.95-1.93,3.48-4.21,4.62-6.81,1.12-2.6,1.69-5.37,1.69-8.33s-.57-5.72-1.69-8.3ZM146.38,82.47c-.58,1.41-1.36,2.63-2.36,3.67-1,1.04-2.17,1.86-3.51,2.47-1.35.61-2.8.91-4.36.91s-3.02-.3-4.38-.91c-1.36-.61-2.54-1.43-3.54-2.47-1-1.04-1.78-2.26-2.34-3.67-.56-1.4-.84-2.89-.84-4.49s.28-3.04.84-4.44c.57-1.41,1.35-2.63,2.34-3.67,1-1.05,2.18-1.87,3.54-2.47,1.36-.61,2.82-.91,4.38-.91s3.01.3,4.36.91c1.34.6,2.52,1.42,3.51,2.47,1,1.04,1.79,2.26,2.36,3.67.58,1.4.87,2.88.87,4.44s-.28,3.09-.87,4.49Z"/>
      <path class="cls-3" d="M198.01,68.98c.56-.51,1.11-1,1.65-1.5.53-.49,1.02-.95,1.45-1.39s.77-.78,1-1.04c.55-.58.93-1.19,1.15-1.84.22-.65.3-1.29.26-1.93-.04-.64-.2-1.23-.48-1.78-.27-.55-.63-1.03-1.06-1.43-.72-.66-1.45-1.09-2.17-1.28-.72-.19-1.4-.23-2.04-.13-.64.1-1.2.3-1.69.59-.49.29-.85.56-1.08.82l-13.14,13.53-9.28-9.41c-.4-.4-.78-.8-1.13-1.19-.35-.39-.67-.74-.95-1.06-.32-.35-.62-.69-.91-1.04-.78-.87-1.55-1.47-2.3-1.8-.75-.33-1.47-.49-2.17-.48-.69.02-1.34.17-1.93.46-.59.29-1.11.65-1.54,1.08-.46.46-.82,1-1.06,1.6-.25.61-.35,1.24-.33,1.91.03.66.2,1.34.5,2.02.3.68.76,1.31,1.37,1.89.66.61,1.24,1.13,1.71,1.58.48.45.98.93,1.52,1.43.53.51,1.03.98,1.5,1.41l8.5,8.02-8.11,7.67c-.46.43-.97.9-1.52,1.41-.55.51-1.08,1-1.58,1.47-.51.48-.98.93-1.41,1.34-.43.42-.75.74-.95.98-.64.55-1.07,1.16-1.3,1.82-.23.67-.32,1.32-.26,1.97.06.65.22,1.26.5,1.84.27.58.61,1.06,1.02,1.43.64.61,1.3,1.01,1.99,1.21.69.2,1.37.27,2.02.19s1.26-.26,1.82-.56,1.03-.66,1.41-1.06c.26-.23.58-.54.95-.93.38-.39.79-.82,1.24-1.3.45-.48.92-.98,1.41-1.5.49-.52.95-1.01,1.39-1.47l7.89-8.02,7.81,7.89c.4.43.86.92,1.37,1.45.51.53,1,1.06,1.5,1.58.49.52.96,1.01,1.41,1.47.45.46.8.82,1.06,1.08.64.58,1.29.97,1.97,1.17.68.2,1.34.26,2,.17.65-.09,1.26-.28,1.82-.56s1.02-.64,1.37-1.04c.12-.15.32-.46.61-.93.29-.48.51-1.03.65-1.67.14-.64.14-1.33,0-2.08-.15-.75-.59-1.47-1.34-2.17-.15-.14-.43-.41-.85-.8-.42-.39-.9-.83-1.43-1.32-.54-.49-1.08-1-1.65-1.54s-1.06-1-1.5-1.41l-8.28-7.85,8.11-7.63c.46-.4.98-.86,1.54-1.37Z"/>
    </g>
    <path class="cls-3" d="M260.86,8.24c-2.38.82-4.7,2.33-6.38,4.19-2.11,2.34-2.69,2.99.84,4.09.94-3.33,4.72-5.29,7.93-5.76.84,2.6,1.18,5.9-.1,8.42-.83,1.63-3,2.81-2.05,4.79.57.38,3.08-2.32,3.46-2.9,2.05-3.18,2.53-9.71.88-13.1-.57-1.18-3.49-.1-4.58.27Z"/>
    <path class="cls-3" d="M227.77,23.73l1.11-1.56c-2.59-3.26-3.64-7.44-1.69-11.31,3.2.34,6.53,2.34,7.7,5.43.13.09,2.18-.95,2.13-1.52-.03-.35-1.97-2.8-2.36-3.17-1.36-1.3-3.93-2.56-5.72-3.18-.8-.27-3.14-1.22-3.79-.55-.3.3-1.14,2.98-1.25,3.55-.84,4.17.26,9.82,3.88,12.31Z"/>
    <path class="cls-3" d="M382.62,56.65c-1.06,0-2,.39-2.8,1.15-.79.76-1.36,2.06-1.71,3.88l-.39,1.18c-1.61-1.9-3.55-3.41-5.84-4.51-2.33-1.12-4.96-1.69-7.91-1.69s-5.72.57-8.3,1.69c-2.59,1.12-4.86,2.66-6.82,4.59-1.95,1.94-3.48,4.21-4.62,6.79-1.12,2.58-1.69,5.36-1.69,8.3s.57,5.73,1.69,8.33c1.13,2.61,2.67,4.88,4.62,6.82,1.96,1.93,4.22,3.47,6.82,4.59,2.58,1.12,5.35,1.69,8.3,1.69s5.59-.57,7.91-1.69c2.17-1.06,4.03-2.47,5.58-4.23l.64,2.54c.32,1.01.82,1.83,1.49,2.45.68.63,1.55.94,2.63.94,1.01,0,1.79-.28,2.34-.84.55-.57.82-1.38.82-2.45v-36.73c0-1.85-.93-2.77-2.78-2.77ZM374.21,82.51c-.58,1.41-1.36,2.63-2.36,3.67-1,1.04-2.17,1.86-3.51,2.47-1.35.61-2.8.91-4.36.91s-3.02-.3-4.38-.91c-1.36-.61-2.54-1.43-3.54-2.47-1-1.04-1.78-2.26-2.34-3.67-.56-1.4-.84-2.89-.84-4.49s.28-3.04.84-4.44c.57-1.41,1.35-2.63,2.34-3.67,1-1.04,2.17-1.86,3.54-2.47,1.36-.61,2.82-.91,4.38-.91s3.01.3,4.36.91c1.34.61,2.51,1.43,3.51,2.47,1,1.04,1.79,2.26,2.36,3.67.58,1.4.87,2.88.87,4.44s-.28,3.09-.87,4.49Z"/>
    <path class="cls-3" d="M424.81,78.29c-1.88-1.1-3.9-2.07-6.07-2.93-2.17-.85-4.19-1.67-6.07-2.45s-3.44-1.58-4.68-2.41c-1.24-.82-1.87-1.76-1.87-2.8,0-1.21.72-2.09,2.17-2.62,1.45-.53,3.4-.66,5.85-.37,1.16.15,2.2.43,3.14.84.94.42,1.81.88,2.6,1.37.79.49,1.53.97,2.21,1.43.68.46,1.34.81,1.97,1.04.61.17,1.26.19,1.97.06s1.34-.4,1.91-.8c.56-.4,1.01-.93,1.34-1.58.33-.65.41-1.39.24-2.23-.49-1.45-1.28-2.71-2.36-3.79s-2.38-1.98-3.9-2.69c-1.52-.71-3.19-1.24-5.03-1.58-1.84-.35-3.72-.52-5.66-.52-2.75,0-5.18.34-7.31,1.02-2.12.68-3.91,1.55-5.35,2.6-1.45,1.06-2.54,2.25-3.27,3.58s-1.11,2.64-1.11,3.95c0,1.73.36,3.28,1.08,4.64.72,1.36,1.68,2.57,2.86,3.62s2.53,1.99,4.03,2.8c1.5.81,3.05,1.54,4.64,2.19s3.14,1.24,4.64,1.76c1.5.52,2.85,1.03,4.03,1.52,1.18.49,2.14.98,2.86,1.47.72.49,1.08,1.04,1.08,1.65,0,.67-.23,1.24-.69,1.73-.46.49-1.1.89-1.91,1.19-.81.3-1.74.52-2.8.65-1.06.13-2.18.15-3.36.06-2.14,0-3.92-.33-5.33-1-1.42-.66-2.62-1.41-3.6-2.23-.98-.82-1.82-1.6-2.51-2.34-.69-.74-1.37-1.19-2.04-1.37-.66-.2-1.32-.22-1.95-.07-.64.16-1.21.44-1.71.85-.51.4-.9.9-1.17,1.5-.27.59-.38,1.24-.33,1.93.23,1.82.98,3.44,2.23,4.86,1.26,1.42,2.79,2.62,4.6,3.6,1.81.98,3.77,1.73,5.88,2.23s4.15.76,6.11.76c2.4,0,4.75-.22,7.05-.65,2.3-.43,4.34-1.13,6.14-2.1,1.79-.97,3.24-2.22,4.34-3.75,1.1-1.53,1.65-3.4,1.65-5.59,0-1.99-.62-3.72-1.86-5.18-1.24-1.46-2.8-2.74-4.68-3.84Z"/>
    <path class="cls-3" d="M480.34,69.55c-.94-2.59-2.25-4.84-3.95-6.76-1.69-1.92-3.74-3.45-6.14-4.58-2.4-1.13-5.05-1.69-7.94-1.69-1.71,0-3.31.28-4.81.84-1.5.56-2.86,1.26-4.08,2.1-1.21.84-2.23,1.76-3.06,2.75-.55.66-.97,1.3-1.28,1.9v-15.67c0-.69-.14-1.35-.41-1.97-.27-.62-.64-1.16-1.11-1.63-.46-.46-1.01-.82-1.63-1.08-.62-.26-1.28-.39-1.97-.39s-1.39.13-2.02.39c-.62.26-1.16.62-1.63,1.08s-.82,1.01-1.08,1.63c-.26.62-.39,1.28-.39,1.97v45.83c0,.72.13,1.39.39,2.02.26.62.62,1.16,1.08,1.63.46.46,1,.82,1.63,1.08.62.26,1.29.39,2.02.39s1.35-.13,1.97-.39c.62-.26,1.16-.62,1.63-1.08.46-.46.83-1,1.11-1.63.27-.62.41-1.29.41-2.02v-15.52c0-1.53.31-3.04.93-4.51.62-1.47,1.47-2.8,2.54-3.97,1.07-1.17,2.31-2.11,3.73-2.82,1.42-.71,2.92-1.06,4.51-1.06s2.99.3,4.29.91c1.3.61,2.43,1.43,3.38,2.47.95,1.04,1.7,2.26,2.23,3.66.53,1.4.8,2.88.8,4.45v15.7c0,.75.11,1.47.33,2.17s.53,1.31.95,1.84c.42.54.95.97,1.58,1.3s1.39.5,2.25.5c.72,0,1.4-.15,2.04-.43.64-.29,1.18-.67,1.63-1.15.45-.48.8-1.03,1.06-1.67.26-.64.39-1.29.39-1.95v-16.35c0-2.95-.47-5.72-1.41-8.3Z"/>
    <path class="cls-3" d="M289.68,61.54c1.89,5.38,1.96,11.2.54,16.66-.43,1.71-1.01,3.37-1.73,4.98-.42,1.1-.89,2.16-1.42,3.16-.07.13-.14.27-.22.4,0,0-.02,0-.03-.02-1.89,2.78-4.12,5.33-6.65,7.6-3.09,2.79-6.61,5.14-10.45,6.99-.6-.1-1.01-.24-1.2-.44-1.02-1.06-.82-2.92-1.06-4.86-.11-1.13-.28-2.27-.48-3.37-.42-2.05-.39-4.23.48-6.15.83-1.41,1.48-2.72,1.99-3.97.13-.31.25-.62.36-.93,2.43-6.77.55-11.42-.88-17.57-.09-.36-.17-.73-.25-1.09-.43-1.99-.79-4.16-.92-6.61.21-9.44,4.48-13.18,9.6-14.33,1.26-.28,2.57-.41,3.89-.42,1.69,0,3.38.16,4.97.41,1.5.24,2.91.55,4.16.86.38.1.75.19,1.09.28-2.67,2.36-4.35,5.79-4.35,9.6,0,1.06.13,2.09.38,3.07-.01,0-.03,0-.04.02-.01,0-.02.02-.03.02.02.05.04.1.06.15.06.14.11.27.17.41.31.74.63,1.49.93,2.24h0s.03.08.04.12c.37.9.72,1.8,1.03,2.72l.02.06Z"/>
    <path class="cls-3" d="M316.41,56c.03.63-.1,1.29-.37,1.96-.28.66-.7,1.23-1.28,1.73-.4.37-.87.68-1.38.91-.53.23-1.08.36-1.68.39-.56.03-1.14-.05-1.75-.26-.04,0-.07-.02-.11-.03-.31-.1-.61-.24-.92-.41-.34-.18-.67-.42-1.01-.69-.17-.17-.34-.34-.51-.5-1.59-1.53-3.33-2.76-5.22-3.71-.95-.48-1.95-.84-3.02-1.09-.36-.09-.73-.16-1.11-.22-.21-.03-.43-.06-.65-.09-.71-.1-1.43-.14-2.18-.15h-.1c-1.01,0-1.99.08-2.94.25-.64.1-1.25.23-1.86.4-.13-.64-.2-1.31-.2-2,0-3.8,2.16-7.11,5.31-8.76,1.88.01,3.66.17,5.35.46,1.77.3,3.46.79,5.07,1.47.77.32,1.52.69,2.26,1.11.81.46,1.6.98,2.38,1.55.34.25.67.51,1,.78.41.33.82.68,1.22,1.05.73.66,1.46,1.38,2.18,2.17.96,1.03,1.47,2.26,1.52,3.68Z"/>
    <path class="cls-3" d="M317.19,86.44c0,.67-.12,1.32-.37,1.95-.07.19-.16.38-.27.56-5.04,6.08-12.66,9.96-21.16,9.96-3.61,0-7.05-.7-10.21-1.97-.79-.31-1.56-.66-2.31-1.06,2.4-2.25,4.54-4.76,6.38-7.47.27.1.55.2.83.28,1.6.49,3.28.74,5.04.74,1.56,0,2.99-.18,4.27-.54,1.28-.36,2.49-.86,3.62-1.49,1.13-.64,2.2-1.37,3.21-2.19,1.01-.83,2.04-1.7,3.08-2.63.4-.26.86-.47,1.37-.62.5-.17,1.02-.25,1.53-.25s1.03.07,1.52.22c.49.15.95.39,1.39.74.64.4,1.14.93,1.52,1.6.37.66.56,1.39.56,2.17Z"/>
    <path class="cls-3" d="M263.75,31.53c-3.52-2.54-3.42-8.55-7.6-11.88-6.58-5.24-15.86-5.26-22.58-.24-4.89,3.66-4.51,10.68-10.22,13.22l8.66,8.65h.18s.17,0,.17,0l3.24-3,2.64-4.68c.61,2.09.07,3.96-1.2,5.64-.27.35-1.69,1.45-1.43,1.81,3.48.25,4.28,4.22,1.35,5.75l-.09.32-.05.18c2.04.82,4.15,1.16,6.36.96,4.78-.44,11.64-5.18,15.38-8.18,2.18-1.74,3.3-3.33,5.18-5.16.33-.33,2.06-1.48,2.13-1.6.46-.81-1.48-1.34-2.11-1.79ZM233.33,35.53c-3.29.3-3.26-4.5-.43-4.77,2.85-.28,3.39,4.51.43,4.77ZM246.31,44.65c-1.18,1.36-3.42,2.87-5.3,2.66-1.11-.12-1.1-.48-.63-.9.06-.05.13-.11.21-.16.08-.06.15-.12.25-.18.34-.23.78-.46,1.2-.68.1-.06.21-.11.31-.15.15-.08.3-.15.44-.21.14-.07.27-.13.38-.18.03-.02.08-.03.11-.05.07-.03.13-.06.18-.09.08-.04.13-.08.16-.09.08-.05.18-.12.29-.2.35-.26.8-.62.99-.81.31-.31.97-1.19,1.18-1.59s.33-1.03.51-1.55c.07-.2.15-.38.24-.53.06-.1.14-.2.21-.26.25-.21.58-.24,1.06.05,1.24.73-1.15,4.18-1.8,4.93ZM252.8,35.53c-3.26.3-3.73-4.7-.44-4.75,3.08-.05,3.16,4.5.44,4.75Z"/>
    <path class="cls-3" d="M262.53,78.96c-.2-.73-.41-1.49-.62-2.21-.18-.61-.42-1.48-.97-1.69h-.04c-.97-.23-1.88.7-3.11,1.36-.41.23-.84.45-1.24.69-2.27,1.17-1.71,3.1-1.9,5.33-.15,2.12-1.3,3.51-3.21,4.56-3.24,1.89-6.56,3.58-9.87,5.33-2.42,1.24-4.74,2.41-7.15,3.59-1.36.65-2.76,1.28-4.23,1.59-2.62.59-4.45-.03-6.63-1.5-1.07-.65-2.09-1.19-3.1-1.81-1-.66-2.24-1.51-3.38-2.06-2.61-1.32-1.27.16-.11,1.15,12.49,10.94,30.74,15.42,46.66,10.35,1.26-.39,2.05-.87,2.3-2.21.58-4.86-.65-9.72-1.56-14.67-.55-2.68-1.12-5.17-1.84-7.79Z"/>
    <path class="cls-3" d="M250.12,70.34c-1.79.21-5.1-.48-6.31,1.14-1.96,2.63,1.65,4.83,3.95,5.11,7.19.89,13.85-3.35,14.04-10.92.11-4.5-4.49-15.26-7-19.19-.21-.32-.48-.62-.8-.83-3.87,2.92-10.16,5.53-15.04,4.41-.6-.14-1.4-.82-1.91-.5-.63.91-1.22,1.87-1.72,2.86-.87,1.71-3.31,8.18-3.33,9.89,0,.2-.09.58.13.6,1.34-.99,2.59-2.06,3.99-2.98,1.86-1.22,8.62-5.59,10.31-6.04,3.12-.82,3.46,2.41,3.57,2.57.15.22-11,7.13-14.21,9.14-.34.21-1.6.96-1.73,1.15-.22.3-.28.86.24.73,5.2-2.64,10.5-5.26,15.44-8.36.6-.38,4.63-2.88,4.63-1.86v9.01c1.09-.69,1.97-1.98,2.14-3.27.13-1.02-.39-2.83.75-3.34,2.92-1.31,1.09,4.45.52,5.56-1.3,2.53-4.83,4.78-7.64,5.1Z"/>
  </g>
</svg>